<mxfile host="65bd71144e">
    <diagram id="3gUVh87vU8t4UT3Mn-3q" name="Page-1">
        <mxGraphModel dx="1491" dy="757" grid="1" gridSize="10" guides="1" tooltips="1" connect="1" arrows="1" fold="1" page="1" pageScale="1" pageWidth="850" pageHeight="1100" math="1" shadow="0">
            <root>
                <mxCell id="0"/>
                <mxCell id="1" parent="0"/>
                <mxCell id="3" value="" style="edgeStyle=none;html=1;fontSize=12;" edge="1" parent="1" source="4" target="6">
                    <mxGeometry relative="1" as="geometry"/>
                </mxCell>
                <mxCell id="4" value="Begin&lt;br&gt;Option 1" style="ellipse;whiteSpace=wrap;html=1;fontSize=12;" vertex="1" parent="1">
                    <mxGeometry x="101" y="160" width="120" height="80" as="geometry"/>
                </mxCell>
                <mxCell id="5" value="" style="edgeStyle=none;html=1;fontSize=12;entryX=0.5;entryY=0;entryDx=0;entryDy=0;" edge="1" parent="1" source="6" target="28">
                    <mxGeometry relative="1" as="geometry">
                        <mxPoint x="230" y="380" as="targetPoint"/>
                    </mxGeometry>
                </mxCell>
                <mxCell id="6" value="$$Input: f(x), a, b, \epsilon&lt;br&gt;$$" style="shape=parallelogram;perimeter=parallelogramPerimeter;whiteSpace=wrap;html=1;fixedSize=1;" vertex="1" parent="1">
                    <mxGeometry x="72.75" y="280" width="157.25" height="70" as="geometry"/>
                </mxCell>
                <mxCell id="33" style="edgeStyle=none;html=1;" edge="1" parent="1" source="24" target="26">
                    <mxGeometry relative="1" as="geometry"/>
                </mxCell>
                <mxCell id="24" value="$$h=\frac{b-a}{n}$$" style="whiteSpace=wrap;html=1;" vertex="1" parent="1">
                    <mxGeometry x="87.5" y="590" width="120" height="60" as="geometry"/>
                </mxCell>
                <mxCell id="38" value="" style="edgeStyle=none;html=1;" edge="1" parent="1" source="26" target="37">
                    <mxGeometry relative="1" as="geometry"/>
                </mxCell>
                <mxCell id="26" value="$$I = \frac{h}{2} * (y_0 + 2y_1 + ... + ... + 2y_{n-1} + y_n)$$" style="whiteSpace=wrap;html=1;" vertex="1" parent="1">
                    <mxGeometry y="670" width="292.5" height="50" as="geometry"/>
                </mxCell>
                <mxCell id="30" value="" style="edgeStyle=none;html=1;" edge="1" parent="1" source="28" target="29">
                    <mxGeometry relative="1" as="geometry"/>
                </mxCell>
                <mxCell id="28" value="$$n&amp;nbsp;\geq \sqrt{\frac{M_2(b-a)^3}{12\epsilon}}$$" style="rounded=0;whiteSpace=wrap;html=1;" vertex="1" parent="1">
                    <mxGeometry x="76.5" y="410" width="144.5" height="60" as="geometry"/>
                </mxCell>
                <mxCell id="32" style="edgeStyle=none;html=1;entryX=0.5;entryY=0;entryDx=0;entryDy=0;" edge="1" parent="1" source="29" target="24">
                    <mxGeometry relative="1" as="geometry"/>
                </mxCell>
                <mxCell id="29" value="&lt;span style=&quot;color: rgb(0, 0, 0); font-family: Helvetica; font-size: 12px; font-style: normal; font-variant-ligatures: normal; font-variant-caps: normal; font-weight: 400; letter-spacing: normal; orphans: 2; text-align: center; text-indent: 0px; text-transform: none; widows: 2; word-spacing: 0px; -webkit-text-stroke-width: 0px; background-color: rgb(251, 251, 251); text-decoration-thickness: initial; text-decoration-style: initial; text-decoration-color: initial; float: none; display: inline !important;&quot;&gt;$$x = \{a \leq x_i \leq b : i = \overline{0, n} \} , \;&lt;br&gt;&amp;nbsp;y = \{y_i : y_i = f(x_i), i = \overline{0, n}\} $$&lt;/span&gt;" style="rounded=0;whiteSpace=wrap;html=1;" vertex="1" parent="1">
                    <mxGeometry x="-42.5" y="490" width="382.5" height="80" as="geometry"/>
                </mxCell>
                <mxCell id="40" value="" style="edgeStyle=none;html=1;" edge="1" parent="1" source="37" target="39">
                    <mxGeometry relative="1" as="geometry"/>
                </mxCell>
                <mxCell id="37" value="$$Output: I$$" style="shape=parallelogram;perimeter=parallelogramPerimeter;whiteSpace=wrap;html=1;fixedSize=1;" vertex="1" parent="1">
                    <mxGeometry x="94.75" y="780" width="105.25" height="40" as="geometry"/>
                </mxCell>
                <mxCell id="39" value="End" style="ellipse;whiteSpace=wrap;html=1;" vertex="1" parent="1">
                    <mxGeometry x="94.75" y="860" width="95.5" height="60" as="geometry"/>
                </mxCell>
                <mxCell id="41" value="&lt;font style=&quot;font-size: 18px;&quot;&gt;&lt;br&gt;&lt;span style=&quot;color: rgb(0, 0, 0); font-family: Helvetica; font-style: normal; font-variant-ligatures: normal; font-variant-caps: normal; font-weight: 400; letter-spacing: normal; orphans: 2; text-align: center; text-indent: 0px; text-transform: none; widows: 2; word-spacing: 0px; -webkit-text-stroke-width: 0px; background-color: rgb(251, 251, 251); text-decoration-thickness: initial; text-decoration-style: initial; text-decoration-color: initial; float: none; display: inline !important;&quot;&gt;Trapezoidal&lt;/span&gt;&lt;br&gt;&lt;/font&gt;" style="text;html=1;strokeColor=none;fillColor=none;align=center;verticalAlign=middle;whiteSpace=wrap;rounded=0;" vertex="1" parent="1">
                    <mxGeometry x="290" y="30" width="135.25" height="80" as="geometry"/>
                </mxCell>
                <mxCell id="42" value="" style="edgeStyle=none;html=1;fontSize=12;" edge="1" parent="1" source="43" target="45">
                    <mxGeometry relative="1" as="geometry"/>
                </mxCell>
                <mxCell id="68" value="" style="edgeStyle=none;html=1;fontSize=18;" edge="1" parent="1" source="43">
                    <mxGeometry relative="1" as="geometry">
                        <mxPoint x="558.25" y="310" as="targetPoint"/>
                    </mxGeometry>
                </mxCell>
                <mxCell id="43" value="Begin&lt;br&gt;Option 2" style="ellipse;whiteSpace=wrap;html=1;fontSize=12;" vertex="1" parent="1">
                    <mxGeometry x="498.25" y="150" width="120" height="80" as="geometry"/>
                </mxCell>
                <mxCell id="69" value="" style="edgeStyle=none;html=1;fontSize=18;" edge="1" parent="1" source="45" target="61">
                    <mxGeometry relative="1" as="geometry"/>
                </mxCell>
                <mxCell id="45" value="$$Input: x_i,y_i,i=\overline{0,n}&lt;br&gt;$$" style="shape=parallelogram;perimeter=parallelogramPerimeter;whiteSpace=wrap;html=1;fixedSize=1;" vertex="1" parent="1">
                    <mxGeometry x="470" y="270" width="180" height="70" as="geometry"/>
                </mxCell>
                <mxCell id="56" style="edgeStyle=none;html=1;" edge="1" parent="1" source="57" target="59">
                    <mxGeometry relative="1" as="geometry"/>
                </mxCell>
                <mxCell id="57" value="$$h=\frac{b-a}{n}$$" style="whiteSpace=wrap;html=1;" vertex="1" parent="1">
                    <mxGeometry x="489.88" y="500" width="120" height="60" as="geometry"/>
                </mxCell>
                <mxCell id="75" value="" style="edgeStyle=none;html=1;fontSize=18;" edge="1" parent="1" source="59" target="70">
                    <mxGeometry relative="1" as="geometry"/>
                </mxCell>
                <mxCell id="59" value="$$I = \frac{h}{2} * (y_0 + 2y_1 + ... + ... + 2y_{n-1} + y_n)$$" style="whiteSpace=wrap;html=1;" vertex="1" parent="1">
                    <mxGeometry x="403.63" y="600" width="292.5" height="50" as="geometry"/>
                </mxCell>
                <mxCell id="60" value="" style="edgeStyle=none;html=1;entryX=0.5;entryY=0;entryDx=0;entryDy=0;" edge="1" parent="1" source="61" target="57">
                    <mxGeometry relative="1" as="geometry">
                        <mxPoint x="551.25" y="490" as="targetPoint"/>
                    </mxGeometry>
                </mxCell>
                <mxCell id="61" value="$$a = x[0], \; b = x[n]$$" style="rounded=0;whiteSpace=wrap;html=1;" vertex="1" parent="1">
                    <mxGeometry x="479" y="410" width="144.5" height="60" as="geometry"/>
                </mxCell>
                <mxCell id="64" value="" style="edgeStyle=none;html=1;" edge="1" parent="1" source="65" target="66">
                    <mxGeometry relative="1" as="geometry"/>
                </mxCell>
                <mxCell id="65" value="$$Output: I, \epsilon$$" style="shape=parallelogram;perimeter=parallelogramPerimeter;whiteSpace=wrap;html=1;fixedSize=1;" vertex="1" parent="1">
                    <mxGeometry x="470" y="900" width="130.12" height="40" as="geometry"/>
                </mxCell>
                <mxCell id="66" value="End" style="ellipse;whiteSpace=wrap;html=1;" vertex="1" parent="1">
                    <mxGeometry x="489.88" y="990" width="95.5" height="60" as="geometry"/>
                </mxCell>
                <mxCell id="76" value="" style="edgeStyle=none;html=1;fontSize=18;" edge="1" parent="1" source="70" target="74">
                    <mxGeometry relative="1" as="geometry"/>
                </mxCell>
                <mxCell id="70" value="$$M_2 = \max_{x \in [a, b]} \mid f^{(2)}(x) \mid$$" style="rounded=0;whiteSpace=wrap;html=1;fontSize=18;" vertex="1" parent="1">
                    <mxGeometry x="370" y="700" width="340" height="60" as="geometry"/>
                </mxCell>
                <mxCell id="77" value="" style="edgeStyle=none;html=1;fontSize=18;" edge="1" parent="1" source="74" target="65">
                    <mxGeometry relative="1" as="geometry"/>
                </mxCell>
                <mxCell id="74" value="&lt;span style=&quot;font-size: 12px;&quot;&gt;$$\epsilon =&amp;nbsp; \frac{(b-a)*h^2}{12}*M_2$$&lt;/span&gt;" style="rounded=0;whiteSpace=wrap;html=1;fontSize=18;" vertex="1" parent="1">
                    <mxGeometry x="431.38" y="790" width="212.51" height="80" as="geometry"/>
                </mxCell>
                <mxCell id="82" value="" style="edgeStyle=none;html=1;fontSize=12;" edge="1" parent="1" source="83" target="85">
                    <mxGeometry relative="1" as="geometry"/>
                </mxCell>
                <mxCell id="83" value="Begin&lt;br&gt;Option 1" style="ellipse;whiteSpace=wrap;html=1;fontSize=12;" vertex="1" parent="1">
                    <mxGeometry x="1081" y="170" width="120" height="80" as="geometry"/>
                </mxCell>
                <mxCell id="84" value="" style="edgeStyle=none;html=1;fontSize=12;entryX=0.5;entryY=0;entryDx=0;entryDy=0;" edge="1" parent="1" source="85" target="91">
                    <mxGeometry relative="1" as="geometry">
                        <mxPoint x="1210" y="390" as="targetPoint"/>
                    </mxGeometry>
                </mxCell>
                <mxCell id="85" value="$$Input: f(x), a, b, \epsilon&lt;br&gt;$$" style="shape=parallelogram;perimeter=parallelogramPerimeter;whiteSpace=wrap;html=1;fixedSize=1;" vertex="1" parent="1">
                    <mxGeometry x="1052.75" y="290" width="157.25" height="70" as="geometry"/>
                </mxCell>
                <mxCell id="86" style="edgeStyle=none;html=1;" edge="1" parent="1" source="87" target="89">
                    <mxGeometry relative="1" as="geometry"/>
                </mxCell>
                <mxCell id="87" value="$$h=\frac{b-a}{2n}$$" style="whiteSpace=wrap;html=1;" vertex="1" parent="1">
                    <mxGeometry x="1067.5" y="600" width="120" height="60" as="geometry"/>
                </mxCell>
                <mxCell id="88" value="" style="edgeStyle=none;html=1;" edge="1" parent="1" source="89" target="94">
                    <mxGeometry relative="1" as="geometry"/>
                </mxCell>
                <mxCell id="89" value="$$I = \frac{h}{3} * (y_0 + 4(y_1 + y_3 + ... ) + 2(y_2 + y_4 + ... ) + y_{2n})$$" style="whiteSpace=wrap;html=1;" vertex="1" parent="1">
                    <mxGeometry x="931.25" y="690" width="360" height="60" as="geometry"/>
                </mxCell>
                <mxCell id="90" value="" style="edgeStyle=none;html=1;" edge="1" parent="1" source="91">
                    <mxGeometry relative="1" as="geometry">
                        <mxPoint x="1128.7499999999998" y="500" as="targetPoint"/>
                    </mxGeometry>
                </mxCell>
                <mxCell id="91" value="$$n&amp;nbsp;\geq \sqrt{\frac{M_2(b-a)^3}{12\epsilon}}$$" style="rounded=0;whiteSpace=wrap;html=1;" vertex="1" parent="1">
                    <mxGeometry x="1056.5" y="420" width="144.5" height="60" as="geometry"/>
                </mxCell>
                <mxCell id="92" style="edgeStyle=none;html=1;entryX=0.5;entryY=0;entryDx=0;entryDy=0;" edge="1" parent="1" target="87">
                    <mxGeometry relative="1" as="geometry">
                        <mxPoint x="1127.9166666666667" y="580" as="sourcePoint"/>
                    </mxGeometry>
                </mxCell>
                <mxCell id="93" value="" style="edgeStyle=none;html=1;" edge="1" parent="1" source="94" target="95">
                    <mxGeometry relative="1" as="geometry"/>
                </mxCell>
                <mxCell id="94" value="$$Output: I$$" style="shape=parallelogram;perimeter=parallelogramPerimeter;whiteSpace=wrap;html=1;fixedSize=1;" vertex="1" parent="1">
                    <mxGeometry x="1074.75" y="790" width="105.25" height="40" as="geometry"/>
                </mxCell>
                <mxCell id="95" value="End" style="ellipse;whiteSpace=wrap;html=1;" vertex="1" parent="1">
                    <mxGeometry x="1074.75" y="870" width="95.5" height="60" as="geometry"/>
                </mxCell>
                <mxCell id="96" value="" style="edgeStyle=none;html=1;fontSize=12;" edge="1" parent="1" source="98" target="100">
                    <mxGeometry relative="1" as="geometry"/>
                </mxCell>
                <mxCell id="97" value="" style="edgeStyle=none;html=1;fontSize=18;" edge="1" parent="1" source="98">
                    <mxGeometry relative="1" as="geometry">
                        <mxPoint x="1538.25" y="320" as="targetPoint"/>
                    </mxGeometry>
                </mxCell>
                <mxCell id="98" value="Begin&lt;br&gt;Option 2" style="ellipse;whiteSpace=wrap;html=1;fontSize=12;" vertex="1" parent="1">
                    <mxGeometry x="1478.25" y="160" width="120" height="80" as="geometry"/>
                </mxCell>
                <mxCell id="99" value="" style="edgeStyle=none;html=1;fontSize=18;" edge="1" parent="1" source="100" target="106">
                    <mxGeometry relative="1" as="geometry"/>
                </mxCell>
                <mxCell id="100" value="$$Input: x_i,y_i,i=\overline{0,2n}&lt;br&gt;$$" style="shape=parallelogram;perimeter=parallelogramPerimeter;whiteSpace=wrap;html=1;fixedSize=1;" vertex="1" parent="1">
                    <mxGeometry x="1450" y="280" width="180" height="70" as="geometry"/>
                </mxCell>
                <mxCell id="101" style="edgeStyle=none;html=1;entryX=0.5;entryY=0;entryDx=0;entryDy=0;" edge="1" parent="1" source="102" target="118">
                    <mxGeometry relative="1" as="geometry">
                        <mxPoint x="1529.88" y="610" as="targetPoint"/>
                    </mxGeometry>
                </mxCell>
                <mxCell id="102" value="$$h=\frac{b-a}{2n}$$" style="whiteSpace=wrap;html=1;" vertex="1" parent="1">
                    <mxGeometry x="1469.88" y="510" width="120" height="60" as="geometry"/>
                </mxCell>
                <mxCell id="105" value="" style="edgeStyle=none;html=1;entryX=0.5;entryY=0;entryDx=0;entryDy=0;" edge="1" parent="1" source="106" target="102">
                    <mxGeometry relative="1" as="geometry">
                        <mxPoint x="1531.25" y="500" as="targetPoint"/>
                    </mxGeometry>
                </mxCell>
                <mxCell id="106" value="$$a = x[0], \; b = x[2n]$$" style="rounded=0;whiteSpace=wrap;html=1;" vertex="1" parent="1">
                    <mxGeometry x="1459" y="420" width="144.5" height="60" as="geometry"/>
                </mxCell>
                <mxCell id="107" value="" style="edgeStyle=none;html=1;" edge="1" parent="1" source="108" target="109">
                    <mxGeometry relative="1" as="geometry"/>
                </mxCell>
                <mxCell id="108" value="$$Output: I, \epsilon$$" style="shape=parallelogram;perimeter=parallelogramPerimeter;whiteSpace=wrap;html=1;fixedSize=1;" vertex="1" parent="1">
                    <mxGeometry x="1450" y="910" width="130.12" height="40" as="geometry"/>
                </mxCell>
                <mxCell id="109" value="End" style="ellipse;whiteSpace=wrap;html=1;" vertex="1" parent="1">
                    <mxGeometry x="1469.88" y="1000" width="95.5" height="60" as="geometry"/>
                </mxCell>
                <mxCell id="110" value="" style="edgeStyle=none;html=1;fontSize=18;" edge="1" parent="1" source="111" target="113">
                    <mxGeometry relative="1" as="geometry"/>
                </mxCell>
                <mxCell id="111" value="$$M_4 = \max_{x \in [a, b]} \mid f^{(4)}(x) \mid$$" style="rounded=0;whiteSpace=wrap;html=1;fontSize=18;" vertex="1" parent="1">
                    <mxGeometry x="1350" y="710" width="340" height="60" as="geometry"/>
                </mxCell>
                <mxCell id="112" value="" style="edgeStyle=none;html=1;fontSize=18;" edge="1" parent="1" source="113" target="108">
                    <mxGeometry relative="1" as="geometry"/>
                </mxCell>
                <mxCell id="113" value="&lt;span style=&quot;font-size: 12px;&quot;&gt;$$\epsilon =&amp;nbsp; \frac{(b-a)*h^4}{180}*M_4$$&lt;/span&gt;" style="rounded=0;whiteSpace=wrap;html=1;fontSize=18;" vertex="1" parent="1">
                    <mxGeometry x="1411.38" y="800" width="212.51" height="80" as="geometry"/>
                </mxCell>
                <mxCell id="114" value="&lt;span style=&quot;color: rgb(0, 0, 0); font-family: Helvetica; font-size: 12px; font-style: normal; font-variant-ligatures: normal; font-variant-caps: normal; font-weight: 400; letter-spacing: normal; orphans: 2; text-align: center; text-indent: 0px; text-transform: none; widows: 2; word-spacing: 0px; -webkit-text-stroke-width: 0px; background-color: rgb(251, 251, 251); text-decoration-thickness: initial; text-decoration-style: initial; text-decoration-color: initial; float: none; display: inline !important;&quot;&gt;$$x = \{a \leq x_i \leq b : i = \overline{0, 2n} \} , \;&lt;br&gt;&amp;nbsp;y = \{y_i : y_i = f(x_i), i = \overline{0, 2n}\} $$&lt;/span&gt;" style="rounded=0;whiteSpace=wrap;html=1;" vertex="1" parent="1">
                    <mxGeometry x="931.25" y="500" width="382.5" height="80" as="geometry"/>
                </mxCell>
                <mxCell id="115" value="" style="endArrow=none;html=1;fontSize=18;" edge="1" parent="1">
                    <mxGeometry width="50" height="50" relative="1" as="geometry">
                        <mxPoint x="800" y="1062.4615948016826" as="sourcePoint"/>
                        <mxPoint x="800" y="3.9999624399038467" as="targetPoint"/>
                    </mxGeometry>
                </mxCell>
                <mxCell id="116" value="" style="endArrow=none;html=1;fontSize=18;" edge="1" parent="1">
                    <mxGeometry width="50" height="50" relative="1" as="geometry">
                        <mxPoint x="1890" y="1060.0015948016826" as="sourcePoint"/>
                        <mxPoint x="1890" y="1.5399624399040377" as="targetPoint"/>
                    </mxGeometry>
                </mxCell>
                <mxCell id="117" value="&lt;font style=&quot;font-size: 24px;&quot;&gt;Simpson&lt;/font&gt;" style="text;html=1;strokeColor=none;fillColor=none;align=center;verticalAlign=middle;whiteSpace=wrap;rounded=0;fontSize=18;" vertex="1" parent="1">
                    <mxGeometry x="1280" y="90" width="60" height="30" as="geometry"/>
                </mxCell>
                <mxCell id="120" value="" style="edgeStyle=none;html=1;fontSize=24;" edge="1" parent="1" source="118" target="111">
                    <mxGeometry relative="1" as="geometry"/>
                </mxCell>
                <mxCell id="118" value="$$I = \frac{h}{3} * (y_0 + 4(y_1 + y_3 + ... ) + 2(y_2 + y_4 + ... ) + y_{2n})$$" style="whiteSpace=wrap;html=1;" vertex="1" parent="1">
                    <mxGeometry x="1349.88" y="600" width="360" height="60" as="geometry"/>
                </mxCell>
                <mxCell id="121" value="" style="edgeStyle=none;html=1;fontSize=12;" edge="1" parent="1" source="122" target="124">
                    <mxGeometry relative="1" as="geometry"/>
                </mxCell>
                <mxCell id="122" value="Begin&lt;br&gt;Option 1" style="ellipse;whiteSpace=wrap;html=1;fontSize=12;" vertex="1" parent="1">
                    <mxGeometry x="2169.75" y="145" width="120" height="80" as="geometry"/>
                </mxCell>
                <mxCell id="123" value="" style="edgeStyle=none;html=1;fontSize=12;entryX=0.5;entryY=0;entryDx=0;entryDy=0;" edge="1" parent="1" source="124" target="130">
                    <mxGeometry relative="1" as="geometry">
                        <mxPoint x="2298.75" y="365" as="targetPoint"/>
                    </mxGeometry>
                </mxCell>
                <mxCell id="124" value="$$Input: f(x), a, b, \epsilon&lt;br&gt;$$" style="shape=parallelogram;perimeter=parallelogramPerimeter;whiteSpace=wrap;html=1;fixedSize=1;" vertex="1" parent="1">
                    <mxGeometry x="2141.5" y="265" width="157.25" height="70" as="geometry"/>
                </mxCell>
                <mxCell id="125" style="edgeStyle=none;html=1;" edge="1" parent="1" source="126" target="128">
                    <mxGeometry relative="1" as="geometry"/>
                </mxCell>
                <mxCell id="126" value="$$h=\frac{b-a}{n}$$" style="whiteSpace=wrap;html=1;" vertex="1" parent="1">
                    <mxGeometry x="2156.25" y="575" width="120" height="60" as="geometry"/>
                </mxCell>
                <mxCell id="127" value="" style="edgeStyle=none;html=1;" edge="1" parent="1" source="128" target="133">
                    <mxGeometry relative="1" as="geometry"/>
                </mxCell>
                <mxCell id="128" value="$$I = \frac{h}{3} * (y_0 + 4(y_1 + y_3 + ... ) + 2(y_2 + y_4 + ... ) + y_{n})$$" style="whiteSpace=wrap;html=1;" vertex="1" parent="1">
                    <mxGeometry x="2020" y="665" width="360" height="60" as="geometry"/>
                </mxCell>
                <mxCell id="129" value="" style="edgeStyle=none;html=1;" edge="1" parent="1" source="130">
                    <mxGeometry relative="1" as="geometry">
                        <mxPoint x="2217.5" y="475" as="targetPoint"/>
                    </mxGeometry>
                </mxCell>
                <mxCell id="130" value="$$n&amp;nbsp;\geq \sqrt{\frac{M_2(b-a)^3}{12\epsilon}}$$" style="rounded=0;whiteSpace=wrap;html=1;" vertex="1" parent="1">
                    <mxGeometry x="2145.25" y="395" width="144.5" height="60" as="geometry"/>
                </mxCell>
                <mxCell id="131" style="edgeStyle=none;html=1;entryX=0.5;entryY=0;entryDx=0;entryDy=0;" edge="1" parent="1" target="126">
                    <mxGeometry relative="1" as="geometry">
                        <mxPoint x="2216.666666666667" y="555" as="sourcePoint"/>
                    </mxGeometry>
                </mxCell>
                <mxCell id="132" value="" style="edgeStyle=none;html=1;" edge="1" parent="1" source="133" target="134">
                    <mxGeometry relative="1" as="geometry"/>
                </mxCell>
                <mxCell id="133" value="$$Output: I$$" style="shape=parallelogram;perimeter=parallelogramPerimeter;whiteSpace=wrap;html=1;fixedSize=1;" vertex="1" parent="1">
                    <mxGeometry x="2163.5" y="765" width="105.25" height="40" as="geometry"/>
                </mxCell>
                <mxCell id="134" value="End" style="ellipse;whiteSpace=wrap;html=1;" vertex="1" parent="1">
                    <mxGeometry x="2163.5" y="845" width="95.5" height="60" as="geometry"/>
                </mxCell>
                <mxCell id="135" value="" style="edgeStyle=none;html=1;fontSize=12;" edge="1" parent="1" source="137" target="139">
                    <mxGeometry relative="1" as="geometry"/>
                </mxCell>
                <mxCell id="136" value="" style="edgeStyle=none;html=1;fontSize=18;" edge="1" parent="1" source="137">
                    <mxGeometry relative="1" as="geometry">
                        <mxPoint x="2627" y="295" as="targetPoint"/>
                    </mxGeometry>
                </mxCell>
                <mxCell id="137" value="Begin&lt;br&gt;Option 2" style="ellipse;whiteSpace=wrap;html=1;fontSize=12;" vertex="1" parent="1">
                    <mxGeometry x="2567" y="135" width="120" height="80" as="geometry"/>
                </mxCell>
                <mxCell id="138" value="" style="edgeStyle=none;html=1;fontSize=18;" edge="1" parent="1" source="139" target="143">
                    <mxGeometry relative="1" as="geometry"/>
                </mxCell>
                <mxCell id="139" value="$$Input: x_i,y_i,i=\overline{0,2n}&lt;br&gt;$$" style="shape=parallelogram;perimeter=parallelogramPerimeter;whiteSpace=wrap;html=1;fixedSize=1;" vertex="1" parent="1">
                    <mxGeometry x="2538.75" y="255" width="180" height="70" as="geometry"/>
                </mxCell>
                <mxCell id="140" style="edgeStyle=none;html=1;entryX=0.5;entryY=0;entryDx=0;entryDy=0;" edge="1" parent="1" source="141" target="154">
                    <mxGeometry relative="1" as="geometry">
                        <mxPoint x="2618.63" y="585" as="targetPoint"/>
                    </mxGeometry>
                </mxCell>
                <mxCell id="141" value="$$h=\frac{b-a}{n}$$" style="whiteSpace=wrap;html=1;" vertex="1" parent="1">
                    <mxGeometry x="2558.63" y="485" width="120" height="60" as="geometry"/>
                </mxCell>
                <mxCell id="142" value="" style="edgeStyle=none;html=1;entryX=0.5;entryY=0;entryDx=0;entryDy=0;" edge="1" parent="1" source="143" target="141">
                    <mxGeometry relative="1" as="geometry">
                        <mxPoint x="2620" y="475" as="targetPoint"/>
                    </mxGeometry>
                </mxCell>
                <mxCell id="143" value="$$a = x[0], \; b = x[n]$$" style="rounded=0;whiteSpace=wrap;html=1;" vertex="1" parent="1">
                    <mxGeometry x="2547.75" y="395" width="144.5" height="60" as="geometry"/>
                </mxCell>
                <mxCell id="144" value="" style="edgeStyle=none;html=1;" edge="1" parent="1" source="145" target="146">
                    <mxGeometry relative="1" as="geometry"/>
                </mxCell>
                <mxCell id="145" value="$$Output: I, \epsilon$$" style="shape=parallelogram;perimeter=parallelogramPerimeter;whiteSpace=wrap;html=1;fixedSize=1;" vertex="1" parent="1">
                    <mxGeometry x="2538.75" y="885" width="130.12" height="40" as="geometry"/>
                </mxCell>
                <mxCell id="146" value="End" style="ellipse;whiteSpace=wrap;html=1;" vertex="1" parent="1">
                    <mxGeometry x="2558.63" y="975" width="95.5" height="60" as="geometry"/>
                </mxCell>
                <mxCell id="147" value="" style="edgeStyle=none;html=1;fontSize=18;" edge="1" parent="1" source="148" target="150">
                    <mxGeometry relative="1" as="geometry"/>
                </mxCell>
                <mxCell id="148" value="$$M_4 = \max_{x \in [a, b]} \mid f^{(4)}(x) \mid$$" style="rounded=0;whiteSpace=wrap;html=1;fontSize=18;" vertex="1" parent="1">
                    <mxGeometry x="2438.75" y="685" width="340" height="60" as="geometry"/>
                </mxCell>
                <mxCell id="149" value="" style="edgeStyle=none;html=1;fontSize=18;" edge="1" parent="1" source="150" target="145">
                    <mxGeometry relative="1" as="geometry"/>
                </mxCell>
                <mxCell id="150" value="&lt;span style=&quot;font-size: 12px;&quot;&gt;$$\epsilon =&amp;nbsp; \frac{(b-a)*h^5}{90}*M_4$$&lt;/span&gt;" style="rounded=0;whiteSpace=wrap;html=1;fontSize=18;" vertex="1" parent="1">
                    <mxGeometry x="2500.13" y="775" width="212.51" height="80" as="geometry"/>
                </mxCell>
                <mxCell id="151" value="&lt;span style=&quot;color: rgb(0, 0, 0); font-family: Helvetica; font-size: 12px; font-style: normal; font-variant-ligatures: normal; font-variant-caps: normal; font-weight: 400; letter-spacing: normal; orphans: 2; text-align: center; text-indent: 0px; text-transform: none; widows: 2; word-spacing: 0px; -webkit-text-stroke-width: 0px; background-color: rgb(251, 251, 251); text-decoration-thickness: initial; text-decoration-style: initial; text-decoration-color: initial; float: none; display: inline !important;&quot;&gt;$$x = \{a \leq x_i \leq b : i = \overline{0, n} \} , \;&lt;br&gt;&amp;nbsp;y = \{y_i : y_i = f(x_i), i = \overline{0, n}\} $$&lt;/span&gt;" style="rounded=0;whiteSpace=wrap;html=1;" vertex="1" parent="1">
                    <mxGeometry x="2020" y="475" width="382.5" height="80" as="geometry"/>
                </mxCell>
                <mxCell id="152" value="&lt;font style=&quot;font-size: 36px;&quot;&gt;Newton Cotez&lt;/font&gt;" style="text;html=1;strokeColor=none;fillColor=none;align=center;verticalAlign=middle;whiteSpace=wrap;rounded=0;fontSize=18;" vertex="1" parent="1">
                    <mxGeometry x="2270" y="40" width="280" height="30" as="geometry"/>
                </mxCell>
                <mxCell id="153" value="" style="edgeStyle=none;html=1;fontSize=24;" edge="1" parent="1" source="154" target="148">
                    <mxGeometry relative="1" as="geometry"/>
                </mxCell>
                <mxCell id="154" value="$$I = \frac{h}{3} * (y_0 + 4(y_1 + y_3 + ... ) + 2(y_2 + y_4 + ... ) + y_{n})$$" style="whiteSpace=wrap;html=1;" vertex="1" parent="1">
                    <mxGeometry x="2438.63" y="575" width="360" height="60" as="geometry"/>
                </mxCell>
            </root>
        </mxGraphModel>
    </diagram>
</mxfile>